<?xml version="1.0" encoding="UTF-8" standalone="no"?>
<svg width="1178px" height="246px" viewBox="0 0 1178 246" version="1.1" xmlns="http://www.w3.org/2000/svg" xmlns:xlink="http://www.w3.org/1999/xlink" xmlns:sketch="http://www.bohemiancoding.com/sketch/ns">
    <!-- Generator: Sketch 3.4.2 (15857) - http://www.bohemiancoding.com/sketch -->
    <title>LH Logo</title>
    <desc>Created with Sketch.</desc>
    <defs></defs>
    <g id="Page-1" stroke="none" stroke-width="1" fill="none" fill-rule="evenodd" sketch:type="MSPage">
        <g id="LH-Logo" sketch:type="MSLayerGroup">
            <g id="Group" sketch:type="MSShapeGroup">
                <g transform="translate(247.000000, 0.000000)" id="Shape" fill="#35495E">
                    <path d="M0.253,182.225 L0.253,2.561 L32.979,2.561 L32.979,159.577 L75.998,159.577 L75.998,182.225 L0.253,182.225 L0.253,182.225 Z"></path>
                    <path d="M84.016,182.225 L120.535,2.561 L154.669,2.561 L191.078,182.225 L160.629,182.225 L153.369,140.505 L122.269,140.505 L114.901,182.225 L84.016,182.225 L84.016,182.225 Z M125.736,119.157 L149.792,119.157 L137.763,45.364 L125.736,119.157 L125.736,119.157 Z"></path>
                    <path d="M208.741,182.225 L208.741,2.561 L252.736,2.561 C261.042,2.561 268.285,3.302 274.462,4.782 C280.638,6.264 286.127,8.72 290.933,12.15 C295.737,15.583 299.366,20.332 301.823,26.4 C304.278,32.469 305.469,39.801 305.399,48.397 C305.325,70.576 296.513,82.964 278.958,85.566 C289.578,87.589 297.505,92.229 302.744,99.49 C307.98,106.75 310.635,116.955 310.709,130.103 C310.779,147.154 306.518,160.103 297.921,168.952 C289.323,177.8 276.791,182.226 260.32,182.226 L208.741,182.226 L208.741,182.225 Z M241.467,75.813 L251.653,75.813 C261.26,75.813 267.87,73.754 271.483,69.637 C275.094,65.519 276.9,58.583 276.9,48.831 C276.9,43.775 276.304,39.675 275.113,36.532 C273.92,33.39 271.916,31.025 269.099,29.435 C266.281,27.847 263.156,26.798 259.725,26.292 C256.293,25.788 251.724,25.534 246.018,25.534 L241.467,25.534 L241.467,75.813 L241.467,75.813 Z M241.467,159.144 L253.495,159.144 C263.248,159.144 270.002,156.867 273.759,152.316 C277.514,147.765 279.394,140.253 279.394,129.778 C279.394,118.94 277.28,111.084 273.055,106.208 C268.829,101.332 261.731,98.893 251.762,98.893 L241.467,98.893 L241.467,159.144 L241.467,159.144 Z"></path>
                    <path d="M332.274,182.225 L332.274,2.561 L364.999,2.561 L364.999,77.656 L401.518,77.656 L401.518,2.561 L434.242,2.561 L434.242,182.225 L401.518,182.225 L401.518,100.953 L364.999,100.953 L364.999,182.225 L332.274,182.225 L332.274,182.225 Z"></path>
                    <path d="M510.311,184.393 C491.817,184.393 478.563,179.373 470.544,169.331 C462.525,159.289 458.515,144.587 458.515,125.228 L458.515,58.908 C458.515,49.372 459.417,41.102 461.224,34.094 C463.029,27.087 465.937,21.02 469.947,15.889 C473.957,10.76 479.32,6.914 486.039,4.348 C492.758,1.785 500.847,0.502 510.312,0.502 C528.734,0.502 541.971,5.451 550.028,15.348 C558.081,25.246 562.11,39.767 562.11,58.909 L562.11,125.229 C562.11,134.621 561.189,142.875 559.345,149.988 C557.503,157.105 554.579,163.283 550.569,168.518 C546.559,173.758 541.196,177.712 534.477,180.385 C527.758,183.054 519.703,184.393 510.311,184.393 L510.311,184.393 Z M502.129,158.711 C504.406,159.651 507.132,160.12 510.31,160.12 C513.488,160.12 516.198,159.651 518.438,158.711 C520.676,157.773 522.465,156.543 523.801,155.025 C525.138,153.509 526.186,151.523 526.945,149.065 C527.704,146.612 528.207,144.154 528.461,141.698 C528.715,139.242 528.84,136.316 528.84,132.92 L528.84,51.322 C528.84,46.988 528.625,43.376 528.19,40.486 C527.757,37.598 526.907,34.87 525.645,32.305 C524.379,29.742 522.484,27.826 519.956,26.562 C517.426,25.299 514.211,24.665 510.31,24.665 C506.409,24.665 503.175,25.299 500.613,26.562 C498.046,27.826 496.151,29.741 494.924,32.305 C493.694,34.87 492.865,37.598 492.432,40.486 C491.997,43.376 491.782,46.989 491.782,51.322 L491.782,132.92 C491.782,136.316 491.906,139.242 492.159,141.698 C492.412,144.154 492.918,146.611 493.677,149.065 C494.436,151.523 495.465,153.509 496.766,155.025 C498.067,156.543 499.855,157.773 502.129,158.711 L502.129,158.711 Z"></path>
                    <path d="M635.253,184.393 C627.234,184.393 620.281,183.453 614.393,181.575 C608.503,179.697 603.665,177.06 599.872,173.665 C596.079,170.27 593.044,165.917 590.77,160.607 C588.494,155.297 586.905,149.555 586.002,143.377 C585.098,137.202 584.648,130.033 584.648,121.869 L584.648,2.561 L616.398,2.561 L616.398,125.228 C616.398,129.417 616.505,132.994 616.722,135.954 C616.939,138.917 617.408,142.023 618.131,145.273 C618.851,148.524 619.881,151.124 621.22,153.075 C622.554,155.025 624.398,156.652 626.745,157.952 C629.092,159.252 631.929,159.902 635.252,159.902 C638.573,159.902 641.41,159.252 643.757,157.952 C646.104,156.652 647.911,155.025 649.175,153.075 C650.439,151.125 651.452,148.524 652.211,145.273 C652.97,142.022 653.439,138.934 653.62,136.009 C653.799,133.082 653.891,129.491 653.891,125.227 L653.891,2.561 L685.639,2.561 L685.639,121.869 C685.639,130.033 685.187,137.202 684.285,143.377 C683.381,149.554 681.793,155.297 679.517,160.607 C677.243,165.917 674.224,170.27 670.468,173.665 C666.712,177.061 661.89,179.697 656.003,181.575 C650.115,183.453 643.2,184.393 635.253,184.393 L635.253,184.393 Z"></path>
                    <path d="M711.107,182.225 L711.107,2.561 L733.644,2.561 L777.641,104.313 L777.641,2.561 L804.73,2.561 L804.73,182.225 L783.275,182.225 L738.846,75.271 L738.846,182.225 L711.107,182.225 L711.107,182.225 Z"></path>
                    <path d="M831.605,182.225 L831.605,2.561 L873.432,2.561 C884.269,2.561 893.333,3.644 900.631,5.812 C907.925,7.979 913.779,11.411 918.185,16.106 C922.591,20.803 925.716,26.564 927.558,33.39 C929.402,40.216 930.323,48.615 930.323,58.584 L930.323,123.385 C930.323,133.644 929.383,142.35 927.505,149.502 C925.625,156.653 922.538,162.722 918.241,167.706 C913.942,172.69 908.216,176.358 901.064,178.705 C893.912,181.054 885.134,182.226 874.732,182.226 L831.605,182.226 L831.605,182.225 Z M864.329,159.253 L873.648,159.253 C876.899,159.253 879.751,158.965 882.209,158.385 C884.665,157.807 886.722,157.123 888.384,156.326 C890.047,155.533 891.436,154.233 892.558,152.425 C893.677,150.622 894.525,148.959 895.103,147.441 C895.681,145.923 896.113,143.632 896.403,140.56 C896.691,137.49 896.872,134.871 896.945,132.703 C897.018,130.535 897.054,127.323 897.054,123.06 L897.054,57.391 C897.054,53.13 896.982,49.697 896.839,47.096 C896.692,44.495 896.351,41.878 895.809,39.24 C895.266,36.604 894.47,34.563 893.424,33.118 C892.377,31.674 890.986,30.354 889.252,29.163 C887.519,27.97 885.351,27.141 882.751,26.67 C880.15,26.201 877.008,25.966 873.323,25.966 L864.33,25.966 L864.33,159.253 L864.329,159.253 Z"></path>
                </g>
                <path d="M206.535,107.634 L206.535,107.656 L190.393,149.482 L153.073,192.19 L140.198,232.624 L136.113,245.476 L101.509,178.167 L101.531,178.167 L101.531,178.145 L140.706,163.725 L140.706,163.703 L140.728,163.703 L140.728,163.681 L174.25,120.332 L182.575,58.61 L206.535,107.634 Z" id="Shape" fill="#F36E2B"></path>
                <path d="M141.943,53.134 L110.519,89.946 L110.452,89.902 L110.143,90.277 L103.408,98.271 L103.386,98.293 L60.964,125.941 L56.239,119.736 L35.414,118.676 L72.249,98.934 L77.527,81.245 L77.571,81.201 L110.629,48.916 L128.516,54.238 L128.516,54.26 L128.538,54.238 L128.56,54.238 L128.56,54.194 L141.943,53.134 Z" id="Shape" fill="#F7A228"></path>
                <path d="M60.942,125.963 L55.245,163.306 L38.307,161.009 L33.648,144.314 L30.092,140.958 L44.976,140.538 L45.374,140.516 L60.942,125.963 Z" id="Shape" fill="#E34329"></path>
                <path d="M208.258,182.628 L196.576,192.19 L165.969,220.191 L136.113,245.476 L140.198,232.624 L153.073,192.19 L190.393,149.482 L206.535,107.656 L206.557,107.656 L208.258,182.628 Z" id="Shape" fill="#F7A228"></path>
                <path d="M60.964,125.941 L60.942,125.941 L60.942,125.963 L45.374,140.516 L30.092,140.936 L28.988,123.556 L28.988,123.534 L35.392,118.676 L35.414,118.676 L56.239,119.736 L60.964,125.941 Z" id="Shape" fill="#31363E"></path>
                <path d="M182.575,58.61 L174.25,120.332 L140.728,163.681 L140.728,163.703 L140.706,163.703 L140.706,163.725 L101.531,178.123 L124.696,150.321 L140.949,130.799 L151.041,118.676 L170.474,60.134 L170.562,60.09 L170.562,60.068 L170.893,59.913 L182.575,58.61 Z" id="Shape" fill="#F7A228"></path>
                <rect id="Rectangle-path" fill="#F36E2B" x="101.509" y="178.145" width="0.1" height="0.1"></rect>
                <path d="M170.562,60.068 L170.628,59.869 L169.966,60.399 L170.474,60.134 L151.041,118.676 L141.015,123.269 L109.569,137.667 L55.245,163.306 L60.964,125.941 L103.386,98.293 L102.701,99.11 L116.017,102.312 L116.79,101.893 L123.79,98.227 L121.648,96.88 L110.85,90.145 L110.828,90.123 L110.519,89.946 L141.943,53.134 L170.893,59.913 L170.562,60.068 Z" id="Shape" fill="#F36E2B"></path>
                <path d="M123.79,98.227 L116.79,101.893 L116.017,102.312 L102.701,99.11 L103.386,98.293 L103.408,98.271 L110.143,90.277 L110.011,90.542 L109.967,90.564 L110.011,90.564 L109.967,90.586 L110.011,90.586 L110.011,90.542 L110.519,89.946 L110.828,90.123 L110.85,90.145 L121.648,96.88 L123.79,98.227 Z" id="Shape" fill="#31363E"></path>
                <path d="M151.041,118.676 L140.949,130.799 L124.696,150.321 L101.531,178.123 L101.531,178.145 L101.509,178.145 L101.509,178.167 L68.451,176.003 L55.245,163.306 L109.569,137.667 L141.015,123.269 L151.041,118.676 Z" id="Shape" fill="#E34329"></path>
                <path d="M206.535,1.813 L206.535,107.634 L182.575,58.61 L170.893,59.913 L141.943,53.134 L128.56,54.194 L128.56,54.238 L128.516,54.238 L110.629,48.916 L77.571,81.201 L77.527,81.245 L72.249,98.934 L35.414,118.676 L35.392,118.698 L28.988,123.556 L30.092,140.936 L30.092,140.958 L33.648,144.314 L38.307,161.009 L38.307,161.031 L55.245,163.328 L68.451,176.003 L101.509,178.167 L136.113,245.476 L136.113,245.498 L0.678,245.498 L0.678,1.813 L206.535,1.813 Z" id="Shape" fill="#35495E"></path>
            </g>
        </g>
    </g>
</svg>